<svg width="96" height="96" viewBox="0 0 257 257" fill="none" xmlns="http://www.w3.org/2000/svg">
<circle cx="128.741" cy="128.038" r="128" fill="url(#paint0_linear_7198_60017)"/>
<path fill-rule="evenodd" clip-rule="evenodd" d="M127.901 56.8748C111.025 56.8748 97.3438 70.3181 97.3438 86.9013V118.861H119.787V85.173C119.787 81.9484 122.447 79.3345 125.729 79.3345H172.682C175.964 79.3345 178.624 81.9484 178.624 85.173V131.252C178.624 134.477 175.964 137.091 172.682 137.091H158.603L150.145 137.091H97.3438V160.067H127.866C127.877 160.067 127.889 160.067 127.901 160.067H171.115C187.991 160.067 201.672 146.624 201.672 130.041V86.9012C201.672 70.3181 187.991 56.8748 171.115 56.8748L127.901 56.8748Z" fill="white"/>
<path fill-rule="evenodd" clip-rule="evenodd" d="M130.228 199.897C147.105 199.897 160.785 186.453 160.785 169.87V160.072H138.342V171.598C138.342 174.823 135.681 177.437 132.4 177.437H85.4471C82.1656 177.437 79.5055 174.823 79.5055 171.598V125.52C79.5055 122.295 82.1656 119.681 85.4471 119.681H99.5258H107.984H160.785V96.7041H130.263C130.252 96.7041 130.24 96.7041 130.228 96.7041H87.0138C70.1379 96.7041 56.4571 110.147 56.4571 126.73L56.4571 169.87C56.4571 186.453 70.1379 199.897 87.0138 199.897H130.228Z" fill="white"/>
<defs>
<linearGradient id="paint0_linear_7198_60017" x1="-12.2093" y1="179.371" x2="279.403" y2="192.778" gradientUnits="userSpaceOnUse">
<stop stop-color="#3F81EF"/>
<stop offset="1" stop-color="#8750F4"/>
</linearGradient>
</defs>
</svg>
